<svg id="Capa_1" enable-background="new 0 0 510 510" height="512" viewBox="0 0 510 510" width="512" xmlns="http://www.w3.org/2000/svg" xmlns:xlink="http://www.w3.org/1999/xlink"><linearGradient id="lg1"><stop offset="0" stop-color="#f8f6fb"/><stop offset="1" stop-color="#efdcfb"/></linearGradient><linearGradient id="SVGID_1_" gradientUnits="userSpaceOnUse" x1="225.211" x2="280.219" xlink:href="#lg1" y1="441.263" y2="441.263"/><linearGradient id="SVGID_2_" gradientUnits="userSpaceOnUse" x1="267.711" x2="252.711" y1="451.889" y2="378.555"><stop offset="0" stop-color="#efdcfb" stop-opacity="0"/><stop offset=".4856" stop-color="#baaad6" stop-opacity=".486"/><stop offset="1" stop-color="#8679b2"/></linearGradient><linearGradient id="lg2"><stop offset="0" stop-color="#ff7044"/><stop offset="1" stop-color="#f82814"/></linearGradient><linearGradient id="SVGID_3_" gradientUnits="userSpaceOnUse" x1="241.653" x2="241.653" xlink:href="#lg2" y1="373.587" y2="402.794"/><linearGradient id="lg3"><stop offset="0" stop-color="#ffd945"/><stop offset=".3043" stop-color="#ffcd3e"/><stop offset=".8558" stop-color="#ffad2b"/><stop offset="1" stop-color="#ffa325"/></linearGradient><linearGradient id="SVGID_4_" gradientUnits="userSpaceOnUse" x1="241.705" x2="481.639" xlink:href="#lg3" y1="229.201" y2="229.201"/><linearGradient id="SVGID_5_" gradientUnits="userSpaceOnUse" x1="161.232" x2="227.966" xlink:href="#lg2" y1="145.947" y2="390.358"/><linearGradient id="SVGID_6_" gradientUnits="userSpaceOnUse" x1="399.079" x2="205.136" xlink:href="#lg2" y1="252.603" y2="193.794"/><linearGradient id="lg4"><stop offset="0" stop-color="#f82814" stop-opacity="0"/><stop offset=".6245" stop-color="#d22725" stop-opacity=".625"/><stop offset="1" stop-color="#c0272d"/></linearGradient><linearGradient id="SVGID_7_" gradientUnits="userSpaceOnUse" x1="240.82" x2="240.82" xlink:href="#lg4" y1="337.718" y2="387.774"/><linearGradient id="SVGID_8_" gradientUnits="userSpaceOnUse" x1="373.959" x2="372.291" xlink:href="#lg4" y1="384.48" y2="336.098"/><linearGradient id="SVGID_9_" gradientUnits="userSpaceOnUse" x1="329.187" x2="99.854" xlink:href="#lg4" y1="203.542" y2="74.208"/><linearGradient id="lg5"><stop offset="0" stop-color="#8a7889"/><stop offset="1" stop-color="#6e566e"/></linearGradient><linearGradient id="SVGID_10_" gradientUnits="userSpaceOnUse" x1="501.405" x2="331.235" xlink:href="#lg5" y1="353.069" y2="226.692"/><linearGradient id="SVGID_11_" gradientUnits="userSpaceOnUse" x1="450.858" x2="341.102" y1="398.242" y2="316.732"><stop offset="0" stop-color="#6e566e" stop-opacity="0"/><stop offset=".2944" stop-color="#674d66" stop-opacity=".294"/><stop offset="1" stop-color="#593b56"/></linearGradient><linearGradient id="SVGID_12_" gradientUnits="userSpaceOnUse" x1="386.227" x2="386.227" xlink:href="#lg3" y1="215.095" y2="335.855"/><linearGradient id="SVGID_13_" gradientUnits="userSpaceOnUse" x1="380.741" x2="383.869" xlink:href="#lg3" y1="266.547" y2="339.119"/><linearGradient id="SVGID_14_" gradientUnits="userSpaceOnUse" x1="381.776" x2="425.57" xlink:href="#lg3" y1="143.03" y2="301.939"/><linearGradient id="SVGID_15_" gradientUnits="userSpaceOnUse" x1="386.227" x2="386.227" y1="309.356" y2="334.801"><stop offset="0" stop-color="#e87264" stop-opacity="0"/><stop offset=".6519" stop-color="#f67150" stop-opacity=".652"/><stop offset="1" stop-color="#ff7044"/></linearGradient><linearGradient id="SVGID_16_" gradientUnits="userSpaceOnUse" x1="148.738" x2="168.738" xlink:href="#lg3" y1="9.468" y2="54.135"/><linearGradient id="SVGID_17_" gradientUnits="userSpaceOnUse" x1="183.027" x2="205.782" xlink:href="#lg5" y1="84.73" y2="84.73"/><linearGradient id="SVGID_18_" gradientUnits="userSpaceOnUse" x1="180.874" x2="215.191" xlink:href="#lg1" y1="154.635" y2="188.952"/><linearGradient id="SVGID_19_" gradientTransform="matrix(-1 0 0 -1 -680.788 1432.788)" gradientUnits="userSpaceOnUse" x1="-878.72" x2="-858.492" xlink:href="#lg1" y1="1261.095" y2="1281.323"/><g><g><path d="m266.252 509.292h-22.505c-14.314 0-25.917-11.604-25.917-25.917v-110.14h74.34v110.14c0 14.313-11.604 25.917-25.918 25.917z" fill="url(#SVGID_1_)"/><path d="m217.83 406.26 74.34 74.34v-107.366h-74.34z" fill="url(#SVGID_2_)"/></g><g><g><path d="m305.123 406.26h-126.939c-12.629 0-22.867-10.238-22.867-22.867v-26.848h172.673v26.848c0 12.629-10.238 22.867-22.867 22.867z" fill="url(#SVGID_3_)"/><g><path d="m455.152 378.717h-186.96c-14.628 0-26.487-11.859-26.487-26.487v-152.577c0-66.256 53.711-119.967 119.967-119.967 66.256 0 119.967 53.711 119.967 119.967v152.577c0 14.628-11.859 26.487-26.487 26.487z" fill="url(#SVGID_4_)"/><path d="m119.967 79.686c-66.256 0-119.967 53.711-119.967 119.967v152.577c0 14.628 11.859 26.487 26.487 26.487h335.185v-299.031z" fill="url(#SVGID_5_)"/><path d="m455.152 378.717h-186.96c-14.628 0-26.487-11.859-26.487-26.487v-152.577c0-66.256 53.711-119.967 119.967-119.967 66.256 0 119.967 53.711 119.967 119.967v152.577c0 14.628-11.859 26.487-26.487 26.487z" fill="url(#SVGID_6_)"/><path d="m0 291.838v60.391c0 14.628 11.859 26.487 26.487 26.487h428.665c14.628 0 26.487-11.859 26.487-26.487v-60.391z" fill="url(#SVGID_7_)"/><path d="m262.353 324.788.1 8.438 45.491 45.491h147.208c14.628 0 26.487-11.859 26.487-26.487v-27.442z" fill="url(#SVGID_8_)"/><path d="m481.64 199.653v152.58c0 14.63-11.86 26.48-26.49 26.48h-99l-185.93-185.92c-8.15-6.37-13.39-16.28-13.39-27.43 0-15.27 9.84-28.23 23.53-32.91v-52.77h181.31c66.26 0 119.97 53.71 119.97 119.97z" fill="url(#SVGID_9_)"/><path d="m440.875 356.546h-158.406c-11.053 0-20.013-8.96-20.013-20.013v-138.942c0-50.062 40.584-90.646 90.646-90.646h17.141c50.062 0 90.646 40.584 90.646 90.646v138.941c-.001 11.053-8.961 20.014-20.014 20.014z" fill="url(#SVGID_10_)"/><path d="m460.888 324.788h-198.432v8.44l23.318 23.318h155.102c11.053 0 20.013-8.96 20.013-20.013v-11.745z" fill="url(#SVGID_11_)"/><g><path d="m510 149.229v165.354c0 10.296-8.347 18.643-18.643 18.643h-228.904v-135.636c0-26.552 11.411-50.425 29.604-67.004h199.3c10.296 0 18.643 8.346 18.643 18.643z" fill="url(#SVGID_12_)"/><path d="m349.585 205.932-87.132 87.132v40.162h228.904c5.149 0 9.81-2.087 13.184-5.462l-121.832-121.832c-9.147-9.147-23.977-9.147-33.124 0z" fill="url(#SVGID_13_)"/><path d="m265.591 173.885 83.995 83.994c9.147 9.147 23.977 9.147 33.124 0l121.832-121.832c-3.374-3.375-8.035-5.462-13.184-5.462h-199.3c-12.573 11.458-21.9 26.4-26.467 43.3z" fill="url(#SVGID_14_)"/><path d="m262.453 295.208v38.018h228.904c10.296 0 18.643-8.347 18.643-18.643v-19.375z" fill="url(#SVGID_15_)"/></g></g></g><path d="m185.461 52.235h-52.827c-3.923 0-5.915-4.718-3.179-7.53l11.996-12.329c1.676-1.722 1.676-4.465 0-6.187l-11.996-12.329c-2.736-2.812-.744-7.53 3.179-7.53h52.827z" fill="url(#SVGID_16_)"/><path d="m191.606 168.751c-6.211 0-11.246-5.035-11.246-11.246v-145.551c0-6.211 5.035-11.246 11.246-11.246 6.211 0 11.246 5.035 11.246 11.246v145.551c0 6.211-5.035 11.246-11.246 11.246z" fill="url(#SVGID_17_)"/><g><circle cx="191.606" cy="165.367" fill="url(#SVGID_18_)" r="34.781"/><circle cx="191.606" cy="165.367" fill="url(#SVGID_19_)" r="20.502"/></g></g></g></svg>