<?xml version="1.0" encoding="iso-8859-1"?>
<!-- Generator: Adobe Illustrator 19.0.0, SVG Export Plug-In . SVG Version: 6.00 Build 0)  -->
<svg version="1.1" id="Layer_1" xmlns="http://www.w3.org/2000/svg" xmlns:xlink="http://www.w3.org/1999/xlink" x="0px" y="0px"
	 viewBox="0 0 426.104 426.104" style="enable-background:new 0 0 426.104 426.104;" xml:space="preserve">
<g>
	<path d="M58.481,292.104L18.217,345.99c-6.225,8.358-9.909,18.718-9.909,29.94c0,27.71,22.463,50.173,50.173,50.173
		c27.71,0,50.173-22.463,50.173-50.173c0-11.222-3.684-21.583-9.909-29.94L58.481,292.104z"/>
	<rect x="367.796" y="105" width="50" height="91.404"/>
	<path d="M12.779,199.327v62.777h91.404v-62.777c0-1.612,1.311-2.923,2.923-2.923h85.049V105h-85.049
		C55.093,105,12.779,147.314,12.779,199.327z"/>
	<polygon points="202.155,30 264.976,30 264.976,85 222.155,85 222.155,216.404 337.796,216.404 337.796,85 294.976,85 294.976,30 
		357.796,30 357.796,0 202.155,0 	"/>
</g>
<g>
</g>
<g>
</g>
<g>
</g>
<g>
</g>
<g>
</g>
<g>
</g>
<g>
</g>
<g>
</g>
<g>
</g>
<g>
</g>
<g>
</g>
<g>
</g>
<g>
</g>
<g>
</g>
<g>
</g>
</svg>
